<svg xmlns="http://www.w3.org/2000/svg" height="800" width="1200" viewBox="-6.195255 -6.60135 53.69221 39.6081"><g fill-rule="evenodd" fill="currentColor"><path d="M33.6815 21.1931H30.427a1.217 1.217 0 00-1.323 1.2436v1.2435a1.217 1.217 0 001.2436 1.217h3.2544a1.217 1.217 0 001.217-1.217v-1.2435a1.217 1.217 0 00-1.2435-1.2436zm.1058 2.4871a.1058.1058 0 01-.1058.1058H30.427a.1058.1058 0 01-.1588-.0793v-1.27c0-.0794.053-.1059.1323-.1059h3.2544c.053 0 .1058 0 .1058.1059v1.2435zm-5.5563-1.323c-.0529-.0528-.1058-.0528-.1322 0l-.3705.6086a.1587.1587 0 000 .1588l.3705.635h.1058l.3704-.635a.1587.1587 0 000-.1588l-.3704-.6085m11.9062-1.1642H35.56v5.2123h1.1113v-1.5081h3.4395a1.217 1.217 0 001.1907-1.2171v-1.2435a1.217 1.217 0 00-1.1907-1.2436zm.0794 2.4871a.1058.1058 0 01-.1323.1058h-3.4396v-1.4287h3.4396c.053 0 .1059 0 .1059.1058v1.2436zm-2.8046-3.6248h3.1221a.7937.7937 0 00.7938-.7408V9.9219h-3.9159v10.1335m-21.9604 2.3813v1.2435a1.217 1.217 0 001.2436 1.217h4.048v-1.1376h-4.048a.1058.1058 0 01-.0794-.0794v-1.2435c0-.0794 0-.1059.1058-.1059h4.0481v-1.1377h-4.0745a1.217 1.217 0 00-1.2171 1.2436m12.9646-2.3813h7.4083v-2.1167h-4.3392v-1.852h4.3392V13.917h-4.3392v-1.852h4.3392V9.9483h-8.2021v9.3134a.7937.7937 0 00.7938.7937"/><path d="M15.4517 13.0969v6.9585h3.9158v-2.6458h1.1906l1.8521 2.6458h4.3127l-2.2225-3.2808L26.035 15.24V9.9483h-3.8894l-2.7781 1.3759v-1.0055c0-.2116-.1852-.3968-.4233-.3968h-1.0584l6.059-8.1227 7.276 6.4823 3.7042-4.0482 4.7625 4.0482h1.5875l-6.35-5.6092-4.2333 3.519L24.4475.7407 23.6538 0 10.5833 13.0175l-1.508-3.0956h1.2435L6.4823 2.6723l-3.757 7.2496h1.1905l-2.54 5.1064h1.5875L0 21.1667l14.0758 3.7041-2.778-6.2706 4.1539-5.5562zm3.9158.4498l2.7781-1.4288v2.9104h-2.7781z"/><path d="M25.9292 21.1931h-3.3338a1.217 1.217 0 00-1.1641 1.2436v1.2435a1.217 1.217 0 001.1906 1.217h3.3073a1.217 1.217 0 001.1906-1.217v-1.2435a1.217 1.217 0 00-1.217-1.2436zm.0793 2.4871a.1058.1058 0 01-.1058.1058h-3.3073a.1058.1058 0 01-.1058-.0793v-1.27c0-.0794.0794-.1059.1323-.1059h3.3073s.0793 0 .0793.1059z"/></g></svg>